<svg width="82" height="86" viewBox="0 0 82 86" fill="none" xmlns="http://www.w3.org/2000/svg">
<path d="M48.7996 46.8564H45.9476V27.1776H41V24.3256H46.2452C47.6526 24.3256 48.7996 25.4726 48.7996 26.88V46.8564Z" fill="#949FA3"/>
<path d="M18.5308 25.4726C18.0906 25.4726 17.6504 25.361 17.2536 25.1378C16.4228 24.6728 15.9082 23.7986 15.9082 22.85V16.929C15.9082 16.0238 16.3856 15.1682 17.1606 14.697L39.7968 0.796603C40.5408 0.344003 41.4584 0.344003 42.2024 0.796603L64.8386 14.697C65.6074 15.1682 66.091 16.03 66.091 16.929V22.85C66.091 23.7986 65.5764 24.679 64.7456 25.1378C63.9148 25.6028 62.898 25.578 62.092 25.082L40.9996 12.093L19.9072 25.082C19.4856 25.3424 19.0082 25.4726 18.5308 25.4726ZM40.9996 9.1418C41.415 9.1418 41.8304 9.2534 42.2024 9.4828L63.239 22.4346V17.053L40.9996 3.4006L18.7602 17.053V22.4346L39.7968 9.4828C40.1688 9.2596 40.5842 9.1418 40.9996 9.1418Z" fill="#949FA3"/>
<path d="M59.396 48.2824H22.6052C21.1978 48.2824 20.0508 47.1354 20.0508 45.728V22.3974H22.9028V45.4304H59.0922V22.3974H61.9442V45.728C61.9504 47.1354 60.8034 48.2824 59.396 48.2824Z" fill="#949FA3"/>
<path d="M36.0532 46.8564H33.2012V26.88C33.2012 25.4726 34.3482 24.3256 35.7556 24.3256H41.0007V27.1776H36.0532V46.8564Z" fill="#949FA3"/>
<path d="M63.5118 85.036C62.6748 85.036 61.9928 84.354 61.9928 83.517V82.7544C61.9928 81.4586 62.4578 80.2 63.2948 79.2142L77.8958 62.1146C78.2678 61.6806 78.4724 61.1226 78.4724 60.5522V32.0508C78.4724 30.724 77.3936 29.639 76.0606 29.639C74.7338 29.639 73.6488 30.7178 73.6488 32.0508V53.1246C73.6488 54.5816 73.0846 55.9456 72.0554 56.9748L72.012 57.012L62.5942 65.7416C62.5818 65.754 62.5694 65.7664 62.557 65.7726C62.5384 65.7912 62.5198 65.8036 62.5012 65.8222C62.4826 65.8408 62.464 65.8532 62.4392 65.8656C62.4144 65.8842 62.3958 65.8966 62.371 65.909C62.3524 65.9214 62.3276 65.9338 62.309 65.9462C62.2904 65.9586 62.2656 65.971 62.2408 65.9834C62.216 65.9958 62.1974 66.002 62.1726 66.0144C62.1478 66.0268 62.123 66.033 62.1044 66.0454C62.0858 66.0516 62.061 66.064 62.0362 66.0702C62.0114 66.0764 61.9866 66.0888 61.9618 66.095C61.937 66.1012 61.9122 66.1074 61.8874 66.1136C61.8626 66.1198 61.8378 66.126 61.813 66.126C61.7882 66.1322 61.7634 66.1322 61.7386 66.1384C61.7138 66.1384 61.689 66.1446 61.6642 66.1446C61.6394 66.1446 61.6146 66.1446 61.5898 66.1508C61.5712 66.1508 61.5526 66.1508 61.5402 66.1508H61.5154C61.4906 66.1508 61.4658 66.1508 61.441 66.1446C61.4162 66.1446 61.3914 66.1384 61.3666 66.1384C61.3418 66.1384 61.3232 66.1322 61.2984 66.126C61.2736 66.1198 61.2488 66.1198 61.224 66.1136C61.1992 66.1074 61.1806 66.1012 61.1558 66.095C61.131 66.0888 61.1062 66.0826 61.0814 66.0764C61.0566 66.0702 61.038 66.064 61.0132 66.0516C60.9884 66.0454 60.9698 66.033 60.945 66.0268C60.9202 66.0144 60.8954 66.0082 60.8768 65.9958C60.8582 65.9834 60.8334 65.9772 60.8086 65.9648C60.79 65.9524 60.7652 65.94 60.7466 65.9276C60.7218 65.9152 60.7032 65.9028 60.6846 65.8904C60.666 65.878 60.6412 65.8594 60.6226 65.8408C60.604 65.8284 60.5854 65.8098 60.5668 65.7974C60.5482 65.7788 60.5296 65.7602 60.511 65.7478C60.4986 65.7354 60.4862 65.723 60.4738 65.7106C60.4676 65.7044 60.4614 65.6982 60.4552 65.692C60.449 65.6858 60.4428 65.6796 60.4366 65.6734C60.4242 65.661 60.4118 65.6486 60.3994 65.63C60.3808 65.6114 60.3684 65.5928 60.3498 65.5742C60.3312 65.5556 60.3188 65.5308 60.3064 65.5122C60.294 65.4936 60.2754 65.4688 60.263 65.4502C60.2506 65.4316 60.2382 65.4068 60.2258 65.3882C60.2134 65.3634 60.201 65.3448 60.1886 65.32C60.1762 65.2952 60.1638 65.2766 60.1576 65.2518C60.1514 65.2332 60.139 65.2084 60.1328 65.1836C60.1266 65.1588 60.1142 65.134 60.108 65.1092C60.1018 65.0906 60.0956 65.0658 60.0894 65.041C60.0832 65.0162 60.077 64.9914 60.0708 64.9666C60.0646 64.9418 60.0584 64.9232 60.0584 64.8984C60.0522 64.8736 60.0522 64.8488 60.046 64.824C60.046 64.7992 60.0398 64.7744 60.0398 64.7558C60.0398 64.731 60.0398 64.7062 60.0336 64.6814C60.0336 64.6566 60.0336 64.6318 60.0336 64.607C60.0336 64.5822 60.0336 64.5574 60.0398 64.5326C60.0398 64.5078 60.046 64.483 60.046 64.4582C60.046 64.4334 60.0522 64.4148 60.0584 64.39C60.0646 64.3652 60.0646 64.3404 60.0708 64.3156C60.077 64.2908 60.0832 64.2722 60.0894 64.2474C60.0956 64.2226 60.1018 64.1978 60.108 64.173C60.1142 64.1544 60.1204 64.1296 60.1328 64.1048C60.139 64.08 60.1514 64.0552 60.1576 64.0366C60.17 64.0118 60.1762 63.9932 60.1886 63.9684C60.201 63.9436 60.2134 63.925 60.2258 63.9002C60.2382 63.8816 60.2506 63.8568 60.263 63.8382C60.2754 63.8134 60.2878 63.7948 60.3002 63.7762C60.3126 63.7514 60.3312 63.7328 60.3498 63.7142C60.3622 63.6956 60.3808 63.677 60.3932 63.6584C60.4118 63.6398 60.4242 63.6212 60.4428 63.6026C60.4552 63.5902 60.4676 63.5778 60.48 63.5654L68.0254 56.02C68.6392 55.4062 68.6392 54.4142 68.0254 53.8004C67.7402 53.5152 67.3496 53.3478 66.9528 53.3478C66.9404 53.3478 66.928 53.3478 66.9156 53.3478C66.5312 53.3602 66.1778 53.5214 65.9236 53.8066L65.8678 53.8624L49.3448 70.3854L49.2828 70.435C49.0286 70.6396 48.8798 70.9806 48.8798 71.3774V83.5294C48.8798 84.3664 48.1978 85.0484 47.3608 85.0484C46.5238 85.0484 45.8418 84.3664 45.8418 83.5294V71.3774C45.8418 70.1002 46.375 68.916 47.305 68.1286L63.6916 51.742C64.51 50.8554 65.626 50.347 66.835 50.316C66.8722 50.316 66.9156 50.316 66.9528 50.316C68.1432 50.316 69.315 50.8058 70.1706 51.6552C70.3256 51.8102 70.4682 51.9776 70.5984 52.1512V32.0508C70.5984 29.0438 73.0412 26.601 76.0482 26.601C79.0552 26.601 81.498 29.0438 81.498 32.0508V60.5522C81.498 61.848 81.033 63.1066 80.196 64.0924L65.6074 81.192C65.2354 81.626 65.0308 82.184 65.0308 82.7544V83.517C65.0308 84.354 64.3488 85.036 63.5118 85.036Z" fill="#949FA3"/>
<path d="M76.0604 27.097C73.3324 27.097 71.1066 29.3166 71.1066 32.0508V53.1246C71.1066 53.4532 71.0508 53.7694 70.9516 54.0732C70.7904 53.292 70.406 52.5728 69.8294 51.9962C69.042 51.2088 67.957 50.7686 66.8534 50.7996C65.7746 50.8244 64.7826 51.277 64.0572 52.0768L47.6458 68.4882C46.815 69.1826 46.3438 70.2242 46.3438 71.3712V83.5232C46.3438 84.0874 46.8026 84.5462 47.3668 84.5462C47.931 84.5462 48.3898 84.0874 48.3898 83.5232V71.3712C48.3898 70.8318 48.6006 70.3482 48.9788 70.0444L49.0222 70.0072L65.5266 53.5028L65.5638 53.4656C65.911 53.0812 66.3946 52.858 66.9154 52.8456C67.461 52.8332 67.9942 53.0502 68.391 53.4408C69.197 54.2468 69.197 55.555 68.391 56.361L60.8394 63.9126C60.8332 63.9188 60.827 63.9312 60.8208 63.9374C60.8084 63.9498 60.796 63.9622 60.7836 63.9746C60.7712 63.987 60.765 63.9994 60.7526 64.0118C60.7402 64.0242 60.734 64.0428 60.7216 64.0552C60.7092 64.0676 60.703 64.08 60.6968 64.0986C60.6906 64.111 60.6782 64.1296 60.672 64.142C60.6658 64.1544 60.6596 64.173 60.6472 64.1854C60.641 64.1978 60.6348 64.2164 60.6286 64.2288C60.6224 64.2474 60.6162 64.2598 60.61 64.2784C60.6038 64.2908 60.5976 64.3094 60.5914 64.3218C60.5852 64.3404 60.579 64.3528 60.579 64.3714C60.5728 64.3838 60.5728 64.4024 60.5666 64.4148C60.5604 64.4334 60.5604 64.4458 60.5604 64.4644C60.5604 64.483 60.5542 64.4954 60.5542 64.514C60.5542 64.5326 60.548 64.545 60.548 64.5636C60.548 64.5822 60.548 64.5946 60.548 64.6132C60.548 64.6318 60.548 64.6442 60.548 64.6628C60.548 64.6814 60.548 64.6938 60.548 64.7124C60.548 64.731 60.548 64.7434 60.5542 64.762C60.5542 64.7806 60.5604 64.793 60.5604 64.8116C60.5604 64.8302 60.5666 64.8426 60.5728 64.855C60.579 64.8736 60.579 64.886 60.5852 64.9046C60.5914 64.917 60.5914 64.9356 60.5976 64.948C60.6038 64.9666 60.61 64.979 60.6162 64.9976C60.6224 65.01 60.6286 65.0286 60.6348 65.041C60.641 65.0534 60.6472 65.072 60.6534 65.0844C60.6596 65.0968 60.672 65.1154 60.6782 65.1278C60.6844 65.1402 60.6968 65.1588 60.703 65.1712C60.7092 65.1836 60.7216 65.2022 60.734 65.2146C60.7464 65.227 60.7526 65.2394 60.765 65.258C60.7774 65.2704 60.7898 65.2828 60.796 65.2952C60.8022 65.3014 60.8084 65.3138 60.8146 65.32C60.8208 65.3262 60.827 65.3262 60.827 65.3324C60.8332 65.3386 60.8332 65.3448 60.8394 65.3448C60.8456 65.351 60.858 65.3572 60.8642 65.3634C60.8766 65.3758 60.889 65.3882 60.9076 65.4006C60.92 65.413 60.9324 65.4192 60.9448 65.4316C60.9572 65.444 60.9758 65.4564 60.9882 65.4626C61.0006 65.4688 61.013 65.4812 61.0316 65.4874C61.044 65.4936 61.0626 65.506 61.075 65.5122C61.0874 65.5184 61.106 65.5246 61.1184 65.537C61.1308 65.5432 61.1494 65.5494 61.1618 65.5556C61.1804 65.5618 61.1928 65.568 61.2114 65.5742C61.2238 65.5804 61.2424 65.5866 61.2548 65.5928C61.2734 65.599 61.2858 65.6052 61.3044 65.6052C61.3168 65.6114 61.3354 65.6114 61.3478 65.6176C61.3664 65.6238 61.3788 65.6238 61.3974 65.6238C61.4098 65.6238 61.4284 65.63 61.4408 65.63C61.4594 65.63 61.4718 65.6362 61.4904 65.6362C61.509 65.6362 61.5214 65.6362 61.54 65.6362C61.5586 65.6362 61.571 65.6362 61.5896 65.6362C61.6082 65.6362 61.6206 65.6362 61.6392 65.6362C61.6578 65.6362 61.6702 65.63 61.6888 65.63C61.7074 65.63 61.7198 65.6238 61.7384 65.6238C61.757 65.6238 61.7694 65.6176 61.788 65.6114C61.8066 65.6052 61.819 65.6052 61.8376 65.599C61.8562 65.5928 61.8686 65.5866 61.8872 65.5866C61.9058 65.5804 61.9182 65.5742 61.9306 65.568C61.9492 65.5618 61.9616 65.5556 61.9802 65.5494C61.9926 65.5432 62.0112 65.537 62.0236 65.5308C62.0422 65.5246 62.0546 65.5122 62.067 65.506C62.0794 65.4998 62.0918 65.4874 62.1104 65.4812C62.1228 65.4688 62.1414 65.4626 62.1538 65.4502C62.1662 65.4378 62.1786 65.4316 62.191 65.4192C62.2034 65.4068 62.2158 65.3944 62.2344 65.382C62.2406 65.3758 62.253 65.3696 62.2592 65.3634L71.677 56.6338L71.7018 56.609C72.638 55.6728 73.1526 54.4328 73.1526 53.106V32.0508C73.1526 30.445 74.4546 29.143 76.0604 29.143C77.6662 29.143 78.9682 30.445 78.9682 32.0508V60.5522C78.9682 61.2466 78.7202 61.9162 78.2738 62.437L63.6728 79.5366C62.9102 80.4294 62.4886 81.5764 62.4886 82.7544V83.517C62.4886 84.0812 62.9474 84.54 63.5116 84.54C64.0758 84.54 64.5346 84.0812 64.5346 83.517V82.7544C64.5346 82.06 64.7826 81.3904 65.229 80.8696L79.83 63.77C80.5926 62.8772 81.0142 61.7302 81.0142 60.5522V32.0508C81.0142 29.3166 78.7946 27.097 76.0604 27.097Z" fill="#949FA3"/>
<path d="M35.0298 85.036C34.1928 85.036 33.5108 84.354 33.5108 83.517V71.365C33.5108 70.9744 33.362 70.6334 33.1078 70.4226L33.0458 70.373L16.5166 53.8438L16.4732 53.7942C16.219 53.509 15.8656 53.3478 15.4812 53.3354C15.4688 53.3354 15.4564 53.3354 15.444 53.3354C15.0472 53.3354 14.6566 53.5028 14.3714 53.788C13.7576 54.4018 13.7576 55.3938 14.3714 56.0076L21.9168 63.553C21.9292 63.5654 21.9416 63.5778 21.954 63.5902C21.9726 63.6088 21.985 63.6274 22.0036 63.646C22.0222 63.6646 22.0346 63.6832 22.047 63.7018C22.0656 63.7204 22.078 63.7452 22.0904 63.7638C22.1028 63.7824 22.1152 63.8072 22.1276 63.8258C22.14 63.8444 22.1524 63.8692 22.1648 63.894C22.1772 63.9188 22.1896 63.9374 22.202 63.9622C22.2144 63.9808 22.2206 64.0056 22.233 64.0304C22.2454 64.0552 22.2516 64.08 22.2578 64.0986C22.264 64.1234 22.2764 64.142 22.2826 64.1668C22.2888 64.1916 22.295 64.2164 22.3012 64.2412C22.3074 64.266 22.3136 64.2846 22.3198 64.3094C22.326 64.3342 22.3322 64.359 22.3322 64.3838C22.3384 64.4086 22.3384 64.4334 22.3446 64.452C22.3446 64.4768 22.3508 64.5016 22.3508 64.5264C22.3508 64.5512 22.3508 64.576 22.357 64.6008C22.357 64.6256 22.357 64.6504 22.357 64.6752C22.357 64.7 22.357 64.7248 22.3508 64.7496C22.3508 64.7744 22.3446 64.7992 22.3446 64.8178C22.3384 64.8426 22.3384 64.8674 22.3322 64.8922C22.326 64.9108 22.326 64.9356 22.3198 64.9604C22.3136 64.9852 22.3074 65.01 22.3012 65.0348C22.295 65.0596 22.2888 65.0782 22.2826 65.103C22.2764 65.1278 22.264 65.1526 22.2578 65.1774C22.2516 65.2022 22.2392 65.2208 22.2268 65.2456C22.2144 65.2704 22.2082 65.289 22.1958 65.3138C22.1834 65.3386 22.171 65.3572 22.1586 65.382C22.1462 65.4068 22.1338 65.4254 22.1214 65.4502C22.109 65.4688 22.0966 65.4936 22.078 65.5122C22.0656 65.5308 22.047 65.5556 22.0346 65.5742C22.0222 65.5928 22.0036 65.6114 21.985 65.63C21.9726 65.6424 21.9602 65.661 21.9478 65.6734C21.9416 65.6796 21.9354 65.6858 21.9292 65.692C21.923 65.6982 21.9168 65.7044 21.9106 65.7106C21.8982 65.723 21.8858 65.7354 21.8734 65.7478C21.8548 65.7664 21.8362 65.785 21.8176 65.7974C21.799 65.816 21.7804 65.8284 21.7618 65.8408C21.737 65.8594 21.7184 65.8718 21.6936 65.8904C21.675 65.9028 21.6564 65.9152 21.6316 65.9276C21.6068 65.94 21.5882 65.9524 21.5634 65.9648C21.5448 65.9772 21.52 65.9896 21.4952 65.9958C21.4704 66.0082 21.4518 66.0144 21.427 66.0268C21.4022 66.0392 21.3774 66.0454 21.3588 66.0578C21.3402 66.064 21.3154 66.0764 21.2906 66.0826C21.2658 66.0888 21.241 66.095 21.2162 66.1012C21.1914 66.1074 21.1728 66.1136 21.148 66.1198C21.1232 66.126 21.0984 66.1322 21.0736 66.1322C21.0488 66.1384 21.0302 66.1384 21.0054 66.1446C20.9806 66.1446 20.9558 66.1508 20.931 66.1508C20.9062 66.1508 20.8876 66.1508 20.8628 66.157H20.838C20.8194 66.157 20.807 66.157 20.7884 66.157C20.7636 66.157 20.7388 66.157 20.7202 66.1508C20.6954 66.1508 20.6706 66.1446 20.6458 66.1446C20.621 66.1446 20.5962 66.1384 20.5776 66.1322C20.5528 66.126 20.528 66.126 20.5032 66.1198C20.4784 66.1136 20.4536 66.1074 20.4288 66.1012C20.404 66.095 20.3792 66.0888 20.3544 66.0764C20.3296 66.0702 20.3048 66.0578 20.2862 66.0516C20.2614 66.0454 20.2428 66.033 20.218 66.0206C20.1932 66.0082 20.1746 66.002 20.1498 65.9896C20.125 65.9772 20.1002 65.9648 20.0816 65.9524C20.063 65.94 20.0382 65.9276 20.0196 65.9152C19.9948 65.9028 19.9762 65.8842 19.9514 65.8718C19.9328 65.8594 19.9142 65.8408 19.8956 65.8284C19.877 65.816 19.8584 65.7974 19.8398 65.7788C19.8274 65.7664 19.815 65.754 19.8026 65.7478L10.3786 57.012L10.3476 56.981C9.31838 55.9518 8.75418 54.5816 8.75418 53.1308V32.0508C8.75418 30.724 7.67538 29.639 6.34238 29.639C5.01558 29.639 3.93058 30.7178 3.93058 32.0508V60.5522C3.93058 61.1226 4.13518 61.6806 4.50718 62.1146L19.1082 79.2142C19.9514 80.2 20.4102 81.4586 20.4102 82.7544V83.517C20.4102 84.354 19.7282 85.036 18.8912 85.036C18.0542 85.036 17.3722 84.354 17.3722 83.517V82.7544C17.3722 82.184 17.1676 81.626 16.7956 81.192L2.19458 64.0924C1.35138 63.1066 0.892578 61.848 0.892578 60.5522V32.0508C0.892578 29.0438 3.33538 26.601 6.34238 26.601C9.34938 26.601 11.7922 29.0438 11.7922 32.0508V52.145C11.9224 51.9714 12.065 51.804 12.22 51.649C13.0756 50.7934 14.2474 50.3098 15.4378 50.3098C15.475 50.3098 15.5184 50.3098 15.5556 50.3098C16.7646 50.3408 17.8806 50.8492 18.699 51.7358L35.0856 68.1224C36.0156 68.9098 36.5488 70.0878 36.5488 71.3712V83.5232C36.5488 84.354 35.8668 85.036 35.0298 85.036Z" fill="#949FA3"/>
<path d="M6.33628 27.097C9.06429 27.097 11.2901 29.3166 11.2901 32.0508V53.1246C11.2901 53.4532 11.3459 53.7694 11.4451 54.0732C11.6063 53.292 11.9907 52.5728 12.5673 51.9962C13.3547 51.2088 14.4397 50.7686 15.5433 50.7996C16.6221 50.8244 17.6141 51.277 18.3395 52.0768L34.7509 68.4882C35.5817 69.1826 36.0529 70.2242 36.0529 71.3712V83.5232C36.0529 84.0874 35.5941 84.5462 35.0299 84.5462C34.4657 84.5462 34.0069 84.0874 34.0069 83.5232V71.3712C34.0069 70.8318 33.7961 70.3482 33.4179 70.0444L33.3745 70.0072L16.8701 53.5028L16.8329 53.4656C16.4857 53.0812 16.0021 52.858 15.4813 52.8456C14.9357 52.8332 14.4025 53.0502 14.0057 53.4408C13.1997 54.2468 13.1997 55.555 14.0057 56.361L21.5511 63.9064C21.5573 63.9126 21.5635 63.925 21.5697 63.9312C21.5821 63.9436 21.5945 63.956 21.6069 63.9684C21.6193 63.9808 21.6255 63.9932 21.6379 64.0056C21.6503 64.018 21.6565 64.0366 21.6689 64.049C21.6813 64.0614 21.6875 64.0738 21.6937 64.0924C21.6999 64.1048 21.7123 64.1234 21.7185 64.1358C21.7247 64.1482 21.7309 64.1668 21.7433 64.1792C21.7495 64.1916 21.7557 64.2102 21.7619 64.2226C21.7681 64.2412 21.7743 64.2536 21.7805 64.2722C21.7867 64.2846 21.7929 64.3032 21.7991 64.3156C21.8053 64.3342 21.8115 64.3466 21.8115 64.3652C21.8177 64.3776 21.8177 64.3962 21.8239 64.4086C21.8301 64.4272 21.8301 64.4396 21.8301 64.4582C21.8301 64.4768 21.8363 64.4892 21.8363 64.5078C21.8363 64.5264 21.8425 64.5388 21.8425 64.5574C21.8425 64.576 21.8425 64.5884 21.8425 64.607C21.8425 64.6256 21.8425 64.638 21.8425 64.6566C21.8425 64.6752 21.8425 64.6876 21.8425 64.7062C21.8425 64.7248 21.8425 64.7372 21.8363 64.7558C21.8363 64.7744 21.8301 64.7868 21.8301 64.8054C21.8301 64.824 21.8239 64.8364 21.8177 64.8488C21.8115 64.8674 21.8115 64.8798 21.8053 64.8984C21.7991 64.9108 21.7991 64.9294 21.7929 64.9418C21.7867 64.9604 21.7805 64.9728 21.7743 64.9914C21.7681 65.0038 21.7619 65.0224 21.7557 65.0348C21.7495 65.0472 21.7433 65.0658 21.7371 65.0782C21.7309 65.0906 21.7185 65.1092 21.7123 65.1216C21.7061 65.134 21.6937 65.1526 21.6875 65.165C21.6813 65.1774 21.6689 65.196 21.6565 65.2084C21.6441 65.2208 21.6379 65.2332 21.6255 65.2518C21.6131 65.2642 21.6007 65.2766 21.5945 65.289C21.5883 65.2952 21.5821 65.3076 21.5759 65.3138C21.5697 65.32 21.5635 65.32 21.5635 65.3262C21.5573 65.3324 21.5573 65.3386 21.5511 65.3386C21.5449 65.3448 21.5325 65.351 21.5263 65.3572C21.5139 65.3696 21.5015 65.382 21.4829 65.3944C21.4705 65.4068 21.4581 65.413 21.4457 65.4254C21.4333 65.4378 21.4147 65.4502 21.4023 65.4564C21.3899 65.4626 21.3775 65.475 21.3589 65.4812C21.3465 65.4874 21.3279 65.4998 21.3155 65.506C21.3031 65.5122 21.2845 65.5184 21.2721 65.5308C21.2597 65.537 21.2411 65.5432 21.2287 65.5494C21.2101 65.5556 21.1977 65.5618 21.1791 65.568C21.1667 65.5742 21.1481 65.5804 21.1357 65.5866C21.1171 65.5928 21.1047 65.599 21.0861 65.599C21.0737 65.6052 21.0551 65.6052 21.0427 65.6114C21.0241 65.6176 21.0117 65.6176 20.9931 65.6176C20.9807 65.6176 20.9621 65.6238 20.9497 65.6238C20.9311 65.6238 20.9187 65.63 20.9001 65.63C20.8815 65.63 20.8691 65.63 20.8505 65.63C20.8319 65.63 20.8195 65.63 20.8009 65.63C20.7823 65.63 20.7699 65.63 20.7513 65.63C20.7327 65.63 20.7203 65.6238 20.7017 65.6238C20.6831 65.6238 20.6707 65.6176 20.6521 65.6176C20.6335 65.6176 20.6211 65.6114 20.6025 65.6052C20.5839 65.599 20.5715 65.599 20.5529 65.5928C20.5343 65.5866 20.5219 65.5804 20.5033 65.5804C20.4847 65.5742 20.4723 65.568 20.4599 65.5618C20.4413 65.5556 20.4289 65.5494 20.4103 65.5432C20.3979 65.537 20.3793 65.5308 20.3669 65.5246C20.3483 65.5184 20.3359 65.506 20.3235 65.4998C20.3111 65.4936 20.2987 65.4812 20.2801 65.475C20.2677 65.4626 20.2491 65.4564 20.2367 65.444C20.2243 65.4316 20.2119 65.4254 20.1995 65.413C20.1871 65.4006 20.1747 65.3882 20.1561 65.3758C20.1499 65.3696 20.1375 65.3634 20.1313 65.3572L10.7135 56.6276L10.6887 56.6028C9.75249 55.6666 9.23789 54.4266 9.23789 53.0998V32.0508C9.23789 30.445 7.93588 29.143 6.33008 29.143C4.72428 29.143 3.42228 30.445 3.42228 32.0508V60.5522C3.42228 61.2466 3.67029 61.9162 4.11669 62.437L18.7177 79.5366C19.4803 80.4294 19.9019 81.5764 19.9019 82.7544V83.517C19.9019 84.0812 19.4431 84.54 18.8789 84.54C18.3147 84.54 17.8559 84.0812 17.8559 83.517V82.7544C17.8559 82.06 17.6079 81.3904 17.1615 80.8696L2.57289 63.77C1.81029 62.8772 1.38868 61.7302 1.38868 60.5522V32.0508C1.38248 29.3166 3.60828 27.097 6.33628 27.097Z" fill="#949FA3"/>
</svg>
